<svg width="24" height="24" viewBox="0 0 24 24" fill="none" xmlns="http://www.w3.org/2000/svg">
<g clip-path="url(#clip0_12_1187)">
<path d="M23.9996 1.99985V5.99985C23.9996 6.26506 23.8943 6.51942 23.7067 6.70695C23.5192 6.89449 23.2648 6.99985 22.9996 6.99985C22.7344 6.99985 22.48 6.89449 22.2925 6.70695C22.105 6.51942 21.9996 6.26506 21.9996 5.99985V3.43885L16.6996 8.70985C16.6097 8.81526 16.4989 8.90083 16.3742 8.96116C16.2495 9.02149 16.1136 9.05524 15.9752 9.06029C15.8367 9.06534 15.6987 9.04157 15.57 8.99048C15.4412 8.93939 15.3245 8.86211 15.2271 8.76353C15.1298 8.66495 15.054 8.54722 15.0046 8.41781C14.9551 8.2884 14.9331 8.15012 14.9399 8.01176C14.9468 7.87339 14.9822 7.73795 15.0442 7.61403C15.1061 7.4901 15.1931 7.38039 15.2996 7.29185L20.6096 1.99985H17.9996C17.7344 1.99985 17.48 1.89449 17.2925 1.70696C17.105 1.51942 16.9996 1.26506 16.9996 0.999848C16.9996 0.734632 17.105 0.480278 17.2925 0.292742C17.48 0.105205 17.7344 -0.00015161 17.9996 -0.00015161H21.9996C22.53 -0.00015161 23.0388 0.210562 23.4138 0.585635C23.7889 0.960708 23.9996 1.46942 23.9996 1.99985ZM20.6546 14.8558C20.0772 14.3065 19.3104 14.0006 18.5134 14.0017C17.7164 14.0028 16.9505 14.3109 16.3746 14.8618L14.4686 16.4678C12.9127 15.8241 11.4993 14.8792 10.3097 13.6875C9.1201 12.4959 8.17768 11.0809 7.53661 9.52385L9.13661 7.62385C9.6876 7.04799 9.99564 6.28205 9.99676 5.48505C9.99787 4.68805 9.69199 3.92125 9.14261 3.34385C9.14261 3.34385 7.29061 0.938848 7.26061 0.906848C6.68959 0.332709 5.91574 0.00609483 5.10603 -0.00251109C4.29633 -0.011117 3.5157 0.298975 2.93261 0.860848L1.78361 1.86085C-5.93639 10.0698 13.9836 29.9988 22.1836 22.1608L23.0956 21.1118C23.6751 20.5307 24.0006 19.7435 24.0006 18.9228C24.0006 18.1022 23.6751 17.315 23.0956 16.7338C23.0626 16.7078 20.6546 14.8558 20.6546 14.8558Z" fill="#6000FF"/>
</g>
<defs>
<clipPath id="clip0_12_1187">
<rect width="24" height="24" fill="white"/>
</clipPath>
</defs>
</svg>
