<svg width="33" height="38" viewBox="0 0 33 38" fill="none" xmlns="http://www.w3.org/2000/svg">
<path d="M7.6681 13.3384L0 17.836V9.46287L7.67151 4.93563L15.4886 9.44882L15.4945 11.4706L9.66841 8.10724V9.36719L15.4979 12.7326L15.5021 14.3314L9.66822 10.963L9.66784 12.2231L15.5057 15.5937L15.5122 17.867L7.6681 13.3384Z" fill="#6000FF"/>
<path d="M0 28.2665V19.3867L7.81769 14.8732L9.5714 15.8793L3.74568 19.2426L4.83724 19.8727L10.6664 16.5071L12.053 17.3029L6.21888 20.6708L7.31025 21.301L13.1477 17.9307L15.1202 19.0617L7.27684 23.5907V32.4137L0 28.2665Z" fill="#6000FF"/>
<path d="M8.67957 33.254V24.228L10.4276 23.2124L10.428 29.9389L11.5192 29.3092V22.5779L12.9012 21.7751V28.5111L13.9925 27.8814V21.1407L15.9583 19.9986V29.0559L23.6482 33.3804L16.4202 37.6077L8.67957 33.254Z" fill="#6000FF"/>
<path d="M17.2137 28.1594L17.2082 26.1377L23.0337 29.5006V28.2409L17.2042 24.8754L17.2002 23.277L23.0337 26.6449V25.3851L17.1962 22.0146L17.1899 19.7413L25.0338 24.2698L32.7021 19.7722V28.1454L25.0304 32.6724L17.2137 28.1594Z" fill="#6000FF"/>
<path d="M23.1305 21.7287L28.9563 18.3654L27.8653 17.7353L22.0355 21.1009L20.6488 20.3055L26.483 16.9369L25.3921 16.307L19.5542 19.6773L17.5822 18.5461L25.4257 14.0177V5.19409L32.7021 9.34109V18.2211L24.8842 22.7347L23.1305 21.7287Z" fill="#6000FF"/>
<path d="M16.7433 8.5514L9.05322 4.2271L16.2818 0L24.0223 4.35316V13.3797L22.2739 14.3952V7.66847L21.1825 8.29835V15.0294L19.8005 15.8328V9.09643L18.7093 9.72574V16.4667L16.7433 17.6089V8.5514Z" fill="#6000FF"/>
<path d="M15.1323 16.8007L15.1296 15.81L9.29096 12.4392L9.29153 10.3134L15.1235 13.6804L15.1216 12.9491L9.29153 9.58314V7.45753L15.1159 10.8195L15.1125 9.66514L7.67184 5.36951L0.373169 9.67653V11.125C3.03677 11.0849 6.47416 11.7152 15.1323 16.8007Z" fill="#6000FF"/>
<path d="M29.0286 29.8768L32.3253 27.9312V20.4269L25.0341 24.7036C25.0341 24.7036 27.5684 27.5908 29.0286 29.8768Z" fill="#6000FF"/>
<path d="M23.882 21.7279L29.7058 18.3656L27.865 17.3025L22.0349 20.6687L21.4006 20.3044L27.233 16.9374L25.3918 15.8741L19.5533 19.2449L18.3336 18.5451L25.8001 14.2343V5.83952L32.3263 9.55938V18.0049L24.8834 22.3022L23.882 21.7279Z" fill="#6000FF"/>
<path d="M17.1168 8.33242L9.80542 4.22111L16.2838 0.432343L23.6455 4.57288V13.164L22.6473 13.7439V7.01912L20.8061 8.08202V14.814L20.1738 15.1814V8.44727L18.3325 9.5096V16.2513L17.1168 16.9575V8.33242Z" fill="#6000FF"/>
</svg>
