<svg width="116" height="38" viewBox="0 0 116 38" fill="none" xmlns="http://www.w3.org/2000/svg">
<path d="M60.8086 25.8008V29H46.6992V25.8008H60.8086ZM60.6035 11.377L48.5176 29H45.6328V26.6484L57.8145 9.09375H60.6035V11.377ZM59.1953 9.09375V12.3066H45.6465V9.09375H59.1953ZM67.3301 14.207V29H63.3789V14.207H67.3301ZM63.1328 10.3516C63.1328 9.77734 63.3333 9.30339 63.7344 8.92969C64.1354 8.55599 64.6732 8.36914 65.3477 8.36914C66.013 8.36914 66.5462 8.55599 66.9473 8.92969C67.3574 9.30339 67.5625 9.77734 67.5625 10.3516C67.5625 10.9258 67.3574 11.3997 66.9473 11.7734C66.5462 12.1471 66.013 12.334 65.3477 12.334C64.6732 12.334 64.1354 12.1471 63.7344 11.7734C63.3333 11.3997 63.1328 10.9258 63.1328 10.3516ZM74.5215 17.2695V29H70.5703V14.207H74.2754L74.5215 17.2695ZM73.9746 21.084H72.8809C72.8809 20.054 73.0039 19.1061 73.25 18.2402C73.5052 17.3652 73.8743 16.6087 74.3574 15.9707C74.8496 15.3236 75.4557 14.8223 76.1758 14.4668C76.8958 14.1113 77.7298 13.9336 78.6777 13.9336C79.334 13.9336 79.9355 14.0339 80.4824 14.2344C81.0293 14.4258 81.4987 14.7311 81.8906 15.1504C82.2917 15.5605 82.6016 16.0983 82.8203 16.7637C83.0391 17.4199 83.1484 18.2083 83.1484 19.1289V29H79.2109V19.5664C79.2109 18.8919 79.1198 18.3724 78.9375 18.0078C78.7552 17.6432 78.4954 17.388 78.1582 17.2422C77.8301 17.0964 77.4336 17.0234 76.9688 17.0234C76.4583 17.0234 76.0117 17.1283 75.6289 17.3379C75.2552 17.5475 74.9453 17.8392 74.6992 18.2129C74.4531 18.5775 74.2708 19.0059 74.1523 19.498C74.0339 19.9902 73.9746 20.5189 73.9746 21.084ZM82.7793 20.6328L81.3711 20.8105C81.3711 19.8444 81.4896 18.9466 81.7266 18.1172C81.9727 17.2878 82.3327 16.5586 82.8066 15.9297C83.2897 15.3008 83.8867 14.8132 84.5977 14.4668C85.3086 14.1113 86.1289 13.9336 87.0586 13.9336C87.7695 13.9336 88.4167 14.0384 89 14.248C89.5833 14.4486 90.0801 14.7721 90.4902 15.2188C90.9095 15.6562 91.2285 16.2305 91.4473 16.9414C91.6751 17.6523 91.7891 18.5228 91.7891 19.5527V29H87.8379V19.5527C87.8379 18.8691 87.7467 18.3496 87.5645 17.9941C87.3913 17.6296 87.1361 17.3789 86.7988 17.2422C86.4707 17.0964 86.0788 17.0234 85.623 17.0234C85.1491 17.0234 84.7344 17.1191 84.3789 17.3105C84.0234 17.4928 83.7272 17.748 83.4902 18.0762C83.2533 18.4043 83.0755 18.7871 82.957 19.2246C82.8385 19.653 82.7793 20.1224 82.7793 20.6328ZM98.9941 14.207V29H95.043V14.207H98.9941ZM94.7969 10.3516C94.7969 9.77734 94.9974 9.30339 95.3984 8.92969C95.7995 8.55599 96.3372 8.36914 97.0117 8.36914C97.6771 8.36914 98.2103 8.55599 98.6113 8.92969C99.0215 9.30339 99.2266 9.77734 99.2266 10.3516C99.2266 10.9258 99.0215 11.3997 98.6113 11.7734C98.2103 12.1471 97.6771 12.334 97.0117 12.334C96.3372 12.334 95.7995 12.1471 95.3984 11.7734C94.9974 11.3997 94.7969 10.9258 94.7969 10.3516ZM110.246 24.9121C110.246 24.6296 110.164 24.3743 110 24.1465C109.836 23.9186 109.531 23.709 109.084 23.5176C108.646 23.3171 108.013 23.1348 107.184 22.9707C106.436 22.8066 105.739 22.6016 105.092 22.3555C104.454 22.1003 103.898 21.7949 103.424 21.4395C102.959 21.084 102.594 20.6647 102.33 20.1816C102.066 19.6895 101.934 19.1289 101.934 18.5C101.934 17.8802 102.066 17.2969 102.33 16.75C102.604 16.2031 102.991 15.7201 103.492 15.3008C104.003 14.8724 104.622 14.5397 105.352 14.3027C106.09 14.0566 106.919 13.9336 107.84 13.9336C109.125 13.9336 110.228 14.1387 111.148 14.5488C112.078 14.959 112.789 15.5241 113.281 16.2441C113.783 16.9551 114.033 17.7663 114.033 18.6777H110.096C110.096 18.2949 110.014 17.9531 109.85 17.6523C109.695 17.3424 109.449 17.1009 109.111 16.9277C108.783 16.7454 108.355 16.6543 107.826 16.6543C107.389 16.6543 107.01 16.7318 106.691 16.8867C106.372 17.0326 106.126 17.2331 105.953 17.4883C105.789 17.7344 105.707 18.0078 105.707 18.3086C105.707 18.5365 105.753 18.7415 105.844 18.9238C105.944 19.097 106.104 19.2565 106.322 19.4023C106.541 19.5482 106.824 19.6849 107.17 19.8125C107.525 19.931 107.963 20.0404 108.482 20.1406C109.549 20.3594 110.501 20.6465 111.34 21.002C112.178 21.3483 112.844 21.8223 113.336 22.4238C113.828 23.0163 114.074 23.7956 114.074 24.7617C114.074 25.418 113.928 26.0195 113.637 26.5664C113.345 27.1133 112.926 27.5918 112.379 28.002C111.832 28.403 111.176 28.7174 110.41 28.9453C109.654 29.1641 108.801 29.2734 107.854 29.2734C106.477 29.2734 105.311 29.0273 104.354 28.5352C103.406 28.043 102.686 27.4186 102.193 26.6621C101.71 25.8965 101.469 25.1126 101.469 24.3105H105.201C105.219 24.8483 105.356 25.2812 105.611 25.6094C105.876 25.9375 106.208 26.1745 106.609 26.3203C107.02 26.4661 107.462 26.5391 107.936 26.5391C108.446 26.5391 108.87 26.4707 109.207 26.334C109.544 26.1882 109.799 25.9967 109.973 25.7598C110.155 25.5137 110.246 25.2311 110.246 24.9121Z" fill="#010915"/>
<path d="M7.6681 13.3384L0 17.836V9.46287L7.67151 4.93563L15.4886 9.44882L15.4945 11.4706L9.66841 8.10724V9.3672L15.4979 12.7326L15.5021 14.3314L9.66822 10.963L9.66784 12.2231L15.5057 15.5937L15.5122 17.867L7.6681 13.3384Z" fill="#6000FF"/>
<path d="M0 28.2665V19.3867L7.81769 14.8732L9.5714 15.8793L3.74568 19.2426L4.83724 19.8727L10.6664 16.5071L12.053 17.3029L6.21888 20.6708L7.31025 21.301L13.1477 17.9307L15.1202 19.0617L7.27684 23.5907V32.4137L0 28.2665Z" fill="#6000FF"/>
<path d="M8.67957 33.254V24.228L10.4276 23.2124L10.428 29.9389L11.5192 29.3092V22.5779L12.9012 21.7751V28.5111L13.9925 27.8814V21.1407L15.9583 19.9986V29.0559L23.6482 33.3804L16.4202 37.6077L8.67957 33.254Z" fill="#6000FF"/>
<path d="M17.2137 28.1594L17.2082 26.1377L23.0337 29.5006V28.2409L17.2042 24.8754L17.2002 23.277L23.0337 26.6449V25.3851L17.1962 22.0146L17.1899 19.7413L25.0338 24.2698L32.7021 19.7722V28.1454L25.0304 32.6724L17.2137 28.1594Z" fill="#6000FF"/>
<path d="M23.1305 21.7287L28.9563 18.3654L27.8653 17.7353L22.0355 21.1009L20.6488 20.3055L26.483 16.9369L25.3921 16.307L19.5542 19.6773L17.5822 18.5461L25.4257 14.0177V5.19409L32.7021 9.34109V18.2211L24.8842 22.7347L23.1305 21.7287Z" fill="#6000FF"/>
<path d="M16.7433 8.5514L9.05322 4.2271L16.2818 0L24.0223 4.35316V13.3797L22.2739 14.3952V7.66847L21.1825 8.29835V15.0294L19.8005 15.8328V9.09643L18.7093 9.72574V16.4667L16.7433 17.6089V8.5514Z" fill="#6000FF"/>
<path d="M15.1323 16.8007L15.1296 15.81L9.29096 12.4392L9.29153 10.3134L15.1235 13.6804L15.1216 12.9491L9.29153 9.58314V7.45753L15.1159 10.8195L15.1125 9.66515L7.67184 5.36951L0.373169 9.67654V11.125C3.03677 11.0849 6.47416 11.7152 15.1323 16.8007Z" fill="#6000FF"/>
<path d="M29.0286 29.8768L32.3253 27.9312V20.4269L25.0341 24.7036C25.0341 24.7036 27.5684 27.5908 29.0286 29.8768Z" fill="#6000FF"/>
<path d="M23.882 21.7279L29.7058 18.3656L27.865 17.3025L22.0349 20.6687L21.4006 20.3044L27.233 16.9374L25.3918 15.8741L19.5533 19.2449L18.3336 18.5451L25.8001 14.2343V5.83952L32.3263 9.55938V18.0049L24.8834 22.3022L23.882 21.7279Z" fill="#6000FF"/>
<path d="M17.1168 8.33242L9.80542 4.22111L16.2838 0.432344L23.6455 4.57288V13.164L22.6473 13.7439V7.01912L20.8061 8.08202V14.814L20.1738 15.1814V8.44727L18.3325 9.5096V16.2513L17.1168 16.9575V8.33242Z" fill="#6000FF"/>
</svg>
