<svg width="151" height="50" viewBox="0 0 151 50" fill="none" xmlns="http://www.w3.org/2000/svg">
<path d="M80.1385 33.8867V38H61.9979V33.8867H80.1385ZM79.8749 15.3418L64.3358 38H60.6268V34.9766L76.2889 12.4062H79.8749V15.3418ZM78.0643 12.4062V16.5371H60.6444V12.4062H78.0643ZM88.5233 18.9805V38H83.4432V18.9805H88.5233ZM83.1268 14.0234C83.1268 13.2852 83.3846 12.6758 83.9003 12.1953C84.4159 11.7148 85.1073 11.4746 85.9745 11.4746C86.83 11.4746 87.5155 11.7148 88.0311 12.1953C88.5585 12.6758 88.8221 13.2852 88.8221 14.0234C88.8221 14.7617 88.5585 15.3711 88.0311 15.8516C87.5155 16.332 86.83 16.5723 85.9745 16.5723C85.1073 16.5723 84.4159 16.332 83.9003 15.8516C83.3846 15.3711 83.1268 14.7617 83.1268 14.0234ZM97.7694 22.918V38H92.6893V18.9805H97.453L97.7694 22.918ZM97.0663 27.8223H95.66C95.66 26.498 95.8182 25.2793 96.1346 24.166C96.4628 23.041 96.9374 22.0684 97.5585 21.248C98.1913 20.416 98.9706 19.7715 99.8964 19.3145C100.822 18.8574 101.894 18.6289 103.113 18.6289C103.957 18.6289 104.73 18.7578 105.433 19.0156C106.137 19.2617 106.74 19.6543 107.244 20.1934C107.76 20.7207 108.158 21.4121 108.439 22.2676C108.721 23.1113 108.861 24.125 108.861 25.3086V38H103.799V25.8711C103.799 25.0039 103.682 24.3359 103.447 23.8672C103.213 23.3984 102.879 23.0703 102.445 22.8828C102.023 22.6953 101.514 22.6016 100.916 22.6016C100.26 22.6016 99.6854 22.7363 99.1932 23.0059C98.7128 23.2754 98.3143 23.6504 97.9979 24.1309C97.6815 24.5996 97.4471 25.1504 97.2948 25.7832C97.1425 26.416 97.0663 27.0957 97.0663 27.8223ZM108.387 27.2422L106.576 27.4707C106.576 26.2285 106.728 25.0742 107.033 24.0078C107.349 22.9414 107.812 22.0039 108.422 21.1953C109.043 20.3867 109.81 19.7598 110.724 19.3145C111.639 18.8574 112.693 18.6289 113.889 18.6289C114.803 18.6289 115.635 18.7637 116.385 19.0332C117.135 19.291 117.773 19.707 118.301 20.2812C118.84 20.8438 119.25 21.582 119.531 22.4961C119.824 23.4102 119.971 24.5293 119.971 25.8535V38H114.891V25.8535C114.891 24.9746 114.773 24.3066 114.539 23.8496C114.316 23.3809 113.988 23.0586 113.555 22.8828C113.133 22.6953 112.629 22.6016 112.043 22.6016C111.433 22.6016 110.9 22.7246 110.443 22.9707C109.986 23.2051 109.605 23.5332 109.301 23.9551C108.996 24.377 108.767 24.8691 108.615 25.4316C108.463 25.9824 108.387 26.5859 108.387 27.2422ZM129.234 18.9805V38H124.154V18.9805H129.234ZM123.838 14.0234C123.838 13.2852 124.096 12.6758 124.611 12.1953C125.127 11.7148 125.818 11.4746 126.685 11.4746C127.541 11.4746 128.226 11.7148 128.742 12.1953C129.269 12.6758 129.533 13.2852 129.533 14.0234C129.533 14.7617 129.269 15.3711 128.742 15.8516C128.226 16.332 127.541 16.5723 126.685 16.5723C125.818 16.5723 125.127 16.332 124.611 15.8516C124.096 15.3711 123.838 14.7617 123.838 14.0234ZM143.701 32.7441C143.701 32.3809 143.596 32.0527 143.385 31.7598C143.174 31.4668 142.781 31.1973 142.207 30.9512C141.644 30.6934 140.83 30.459 139.764 30.248C138.803 30.0371 137.906 29.7734 137.074 29.457C136.254 29.1289 135.539 28.7363 134.93 28.2793C134.332 27.8223 133.863 27.2832 133.523 26.6621C133.183 26.0293 133.014 25.3086 133.014 24.5C133.014 23.7031 133.183 22.9531 133.523 22.25C133.875 21.5469 134.373 20.9258 135.017 20.3867C135.674 19.8359 136.471 19.4082 137.408 19.1035C138.357 18.7871 139.424 18.6289 140.607 18.6289C142.26 18.6289 143.678 18.8926 144.861 19.4199C146.057 19.9473 146.971 20.6738 147.603 21.5996C148.248 22.5137 148.57 23.5566 148.57 24.7285H143.508C143.508 24.2363 143.402 23.7969 143.191 23.4102C142.992 23.0117 142.676 22.7012 142.242 22.4785C141.82 22.2441 141.269 22.127 140.59 22.127C140.027 22.127 139.541 22.2266 139.131 22.4258C138.721 22.6133 138.404 22.8711 138.182 23.1992C137.971 23.5156 137.865 23.8672 137.865 24.2539C137.865 24.5469 137.924 24.8105 138.041 25.0449C138.17 25.2676 138.375 25.4727 138.656 25.6602C138.937 25.8477 139.301 26.0234 139.746 26.1875C140.203 26.3398 140.766 26.4805 141.433 26.6094C142.805 26.8906 144.029 27.2598 145.107 27.7168C146.185 28.1621 147.041 28.7715 147.674 29.5449C148.307 30.3066 148.623 31.3086 148.623 32.5508C148.623 33.3945 148.435 34.168 148.06 34.8711C147.685 35.5742 147.146 36.1895 146.443 36.7168C145.74 37.2324 144.896 37.6367 143.912 37.9297C142.939 38.2109 141.844 38.3516 140.625 38.3516C138.855 38.3516 137.355 38.0352 136.125 37.4023C134.906 36.7695 133.98 35.9668 133.348 34.9941C132.726 34.0098 132.416 33.002 132.416 31.9707H137.215C137.238 32.6621 137.414 33.2188 137.742 33.6406C138.082 34.0625 138.51 34.3672 139.025 34.5547C139.553 34.7422 140.121 34.8359 140.73 34.8359C141.387 34.8359 141.932 34.748 142.365 34.5723C142.799 34.3848 143.127 34.1387 143.349 33.834C143.584 33.5176 143.701 33.1543 143.701 32.7441Z" fill="white"/>
<path d="M10.1948 17.7341L0 23.7137V12.5815L10.1994 6.5625L20.5923 12.5628L20.6002 15.2508L12.8543 10.7792V12.4543L20.6047 16.9287L20.6103 19.0543L12.854 14.5759L12.8535 16.2513L20.6151 20.7325L20.6236 23.7549L10.1948 17.7341Z" fill="#6000FF"/>
<path d="M0 37.5811V25.7753L10.3937 19.7744L12.7253 21.1121L4.97993 25.5837L6.43118 26.4214L14.1811 21.9467L16.0246 23.0048L8.26808 27.4824L9.71908 28.3204L17.4801 23.8394L20.1025 25.3432L9.67466 31.3645V43.0948L0 37.5811Z" fill="#6000FF"/>
<path d="M11.54 44.2121V32.2119L13.8641 30.8616L13.8646 39.8046L15.3153 38.9674V30.0181L17.1527 28.9507V37.9063L18.6037 37.0692V28.1073L21.2172 26.5889V38.6307L31.4411 44.3802L21.8313 50.0004L11.54 44.2121Z" fill="#6000FF"/>
<path d="M22.8853 37.4381L22.878 34.7502L30.6231 39.2213V37.5464L22.8727 33.072L22.8674 30.9469L30.6231 35.4246V33.7497L22.8621 29.2685L22.8538 26.2461L33.2823 32.2669L43.4774 26.2872V37.4194L33.2778 43.4382L22.8853 37.4381Z" fill="#6000FF"/>
<path d="M30.7531 28.8883L38.4985 24.4167L37.048 23.579L29.2973 28.0536L27.4536 26.9961L35.2103 22.5174L33.7598 21.68L25.9983 26.161L23.3765 24.657L33.8045 18.6364V6.90527L43.4787 12.4188V24.2249L33.0847 30.2257L30.7531 28.8883Z" fill="#6000FF"/>
<path d="M22.2602 11.3692L12.0361 5.61999L21.6467 0L31.9377 5.78758V17.7885L29.6132 19.1386V10.1953L28.1622 11.0328V19.9818L26.3247 21.0499V12.0938L24.874 12.9305V21.8927L22.2602 23.4113V11.3692Z" fill="#6000FF"/>
<path d="M20.1184 22.3376L20.1148 21.0204L12.3523 16.5389L12.3531 13.7127L20.1068 18.1891L20.1042 17.2169L12.3531 12.7417V9.9157L20.0967 14.3855L20.0921 12.8508L10.1997 7.13965L0.495972 12.8659V14.7916C4.03727 14.7384 8.60732 15.5763 20.1184 22.3376Z" fill="#6000FF"/>
<path d="M38.5935 39.722L42.9766 37.1352V27.1582L33.2827 32.8441C33.2827 32.8441 36.6521 36.6827 38.5935 39.722Z" fill="#6000FF"/>
<path d="M31.7523 28.8875L39.4951 24.4172L37.0477 23.0038L29.2965 27.4792L28.4532 26.9949L36.2075 22.5185L33.7595 21.1048L25.9972 25.5863L24.3756 24.656L34.3024 18.9247V7.76367L42.9791 12.7093V23.9377L33.0836 29.651L31.7523 28.8875Z" fill="#6000FF"/>
<path d="M22.7564 11.0784L13.0358 5.61242L21.6489 0.575195L31.4363 6.0801V17.5021L30.1093 18.2731V9.33241L27.6613 10.7455V19.6958L26.8206 20.1842V11.2311L24.3727 12.6435V21.6067L22.7564 22.5456V11.0784Z" fill="#6000FF"/>
</svg>
