<svg width="1696" height="469" viewBox="0 0 1696 469" fill="none" xmlns="http://www.w3.org/2000/svg">
<path d="M1211.19 355.483C1212.39 356.86 1225.01 365.451 1245.51 377.627C1267.93 390.965 1299.09 411.391 1333.55 422.091C1346.65 426.133 1359.49 425.406 1365.41 416.673C1371.81 407.185 1371.41 390.946 1373.61 373.321C1375.5 358.298 1383.16 343.611 1396.29 339.643C1411.98 334.918 1430.74 338.441 1443.91 331.632C1471.02 317.477 1461.88 266.408 1465.56 226.823C1467.18 209.421 1473.97 195.29 1485.05 188.893C1496.79 182.17 1512.02 181.516 1527.1 180.799C1686.93 173.522 1599.82 15.5261 1570.18 102.648C1563.78 121.477 1559.19 148.889 1536.81 161.292C1512.75 174.578 1470.01 174.612 1455.58 207.774C1447.66 225.978 1443.77 247.482 1430.05 259.813C1416.38 272.1 1393.83 273.155 1372.08 275.109C1351.38 276.948 1333.18 282.432 1320.23 291.654C1307.56 300.696 1297.16 310.93 1285.29 315.627C1258.01 326.426 1231.37 324.686 1217.45 330.161C1203.8 335.586 1200.66 343.442 1211.18 355.475L1211.19 355.483Z" fill="#F19E22"/>
<rect x="0.5" y="161.5" width="143" height="144" rx="71.5" stroke="white" stroke-opacity="0.4"/>
<rect x="0.5" y="-0.5" width="33" height="34" rx="16.5" transform="matrix(1 0 0 -1 117 185)" stroke="white" stroke-opacity="0.34"/>
<path d="M789.504 66.5006C789.788 67.9094 795.078 78.7018 804.363 95.0165C814.507 112.873 827.867 138.979 847.277 159.721C854.66 167.585 863.733 172.09 871.177 168.418C879.251 164.42 885.303 153.157 893.675 141.957C900.814 132.414 911.775 125.35 922.304 127.749C934.874 130.625 946.339 140.343 957.996 140.812C982.055 141.686 995.693 103.191 1013.63 77.5436C1021.51 66.2698 1031.66 59.2465 1041.73 59.1871C1052.38 59.1601 1063.05 64.6411 1073.65 70.025C1185.82 127.289 1187.76 -14.719 1133.55 33.3355C1121.85 43.7276 1108.03 60.6931 1087.89 60.4598C1066.25 60.1787 1037 43.5606 1014.22 60.6269C1001.71 69.9938 990.676 83.1918 976.49 86.286C962.346 89.3645 946.513 81.3068 930.869 74.1714C915.994 67.3697 901.406 64.032 888.959 65.3004C876.772 66.5529 865.667 69.5004 855.718 68.0922C832.855 64.8583 815.304 53.2912 803.648 51.6158C792.199 50.0124 786.994 54.1653 789.5 66.491L789.504 66.5006Z" fill="#F19E22"/>
<path opacity="0.1" d="M904.097 303.739L904.097 303.739C905.088 308.555 910.907 313.214 917.548 310.864C921.051 309.624 922.958 307.118 924.498 304.471C924.847 303.871 925.174 303.27 925.498 302.673C925.533 302.61 925.567 302.546 925.601 302.483C925.957 301.829 926.313 301.18 926.684 300.57C927.42 299.358 928.253 298.232 929.358 297.461C931.197 296.176 932.879 295.82 934.637 295.815C935.498 295.813 936.377 295.895 937.28 295.984C937.359 295.992 937.438 296 937.517 296.008C938.356 296.091 939.226 296.178 940.175 296.22L940.175 296.22C943.677 296.376 946.841 294.788 948.65 292.257C950.443 289.749 950.947 286.258 949.026 282.476L949.026 282.476C947.803 280.067 945.111 279.074 942.133 278.337C941.656 278.219 941.166 278.106 940.678 277.994C939.71 277.771 938.751 277.55 937.914 277.293C936.662 276.908 935.452 276.381 934.735 275.443L934.735 275.443C933.904 274.356 933.56 272.964 933.407 271.513C933.277 270.275 933.28 268.908 933.282 267.542C933.283 267.306 933.283 267.07 933.283 266.835C933.28 263.557 933.134 260.375 931.397 258.006L931.397 258.005C929.824 255.856 926.475 254.085 922.761 253.792C919.086 253.502 915.168 254.669 912.398 258.232C911.715 259.111 911.403 260.159 911.26 261.345C911.158 262.188 911.146 263.037 911.133 263.924C911.127 264.319 911.121 264.721 911.107 265.133C911.063 266.421 910.938 267.769 910.405 268.976C909.856 270.218 908.897 271.262 907.294 271.98C906.326 272.415 905.191 272.458 904.057 272.38C903.251 272.324 902.372 272.198 901.49 272.072C901.135 272.022 900.781 271.971 900.43 271.925C897.904 271.592 895.419 271.465 893.308 272.689L904.097 303.739ZM904.097 303.739C903.931 302.932 903.801 302.016 903.66 301.022M904.097 303.739L903.66 301.022M903.66 301.022C903.604 300.628 903.546 300.222 903.484 299.806M903.66 301.022L903.484 299.806M903.484 299.806C903.268 298.363 903 296.828 902.556 295.413M903.484 299.806L902.556 295.413M902.556 295.413C902.114 294.002 901.481 292.656 900.502 291.627M902.556 295.413L900.502 291.627M900.502 291.627C899.505 290.579 898.181 289.896 896.449 289.777M900.502 291.627L896.449 289.777M896.449 289.777C892.805 289.527 889.942 286.503 889.041 282.818M896.449 289.777L889.041 282.818M889.041 282.818C888.15 279.174 889.227 275.058 893.308 272.69L889.041 282.818Z" stroke="white" stroke-width="1.5"/>
</svg>
