<svg width="15" height="14" viewBox="0 0 15 14" fill="none" xmlns="http://www.w3.org/2000/svg">
<g opacity="0.7">
<path opacity="0.7" d="M10.3158 4.4209C11.4884 4.4209 12.6129 4.88669 13.442 5.71579C14.2711 6.5449 14.7369 7.66941 14.7369 8.84195V13.9998H11.7895V8.84195C11.7895 8.45111 11.6342 8.07627 11.3579 7.7999C11.0815 7.52353 10.7067 7.36827 10.3158 7.36827C9.92498 7.36827 9.55015 7.52353 9.27378 7.7999C8.99741 8.07627 8.84214 8.45111 8.84214 8.84195V13.9998H5.89478V8.84195C5.89478 7.66941 6.36056 6.5449 7.18967 5.71579C8.01878 4.88669 9.14329 4.4209 10.3158 4.4209Z" fill="white"/>
<path opacity="0.7" d="M2.94737 5.1582H0V14.0003H2.94737V5.1582Z" fill="white"/>
<path opacity="0.7" d="M1.47368 2.94737C2.28758 2.94737 2.94737 2.28758 2.94737 1.47368C2.94737 0.659791 2.28758 0 1.47368 0C0.659791 0 0 0.659791 0 1.47368C0 2.28758 0.659791 2.94737 1.47368 2.94737Z" fill="white"/>
</g>
</svg>
