<svg width="15" height="12" viewBox="0 0 15 12" fill="none" xmlns="http://www.w3.org/2000/svg">
<path opacity="0.7" fill-rule="evenodd" clip-rule="evenodd" d="M7.5 0C8.14125 0 8.799 0.0165001 9.4365 0.0435001L10.1895 0.0795L10.9103 0.12225L11.5853 0.168L12.2017 0.216C12.8708 0.267208 13.5003 0.55271 13.9796 1.02228C14.459 1.49185 14.7573 2.11541 14.8223 2.78325L14.8522 3.102L14.9085 3.7845C14.961 4.49175 15 5.26275 15 6C15 6.73725 14.961 7.50825 14.9085 8.2155L14.8522 8.898C14.8425 9.0075 14.8328 9.11325 14.8223 9.21675C14.7573 9.88471 14.4588 10.5084 13.9794 10.9779C13.4999 11.4475 12.8702 11.733 12.201 11.784L11.586 11.8312L10.911 11.8778L10.1895 11.9205L9.4365 11.9565C8.79138 11.9845 8.14573 11.999 7.5 12C6.85427 11.999 6.20863 11.9845 5.5635 11.9565L4.8105 11.9205L4.08975 11.8778L3.41475 11.8312L2.79825 11.784C2.12921 11.7328 1.49966 11.4473 1.02035 10.9777C0.541045 10.5082 0.242681 9.88459 0.17775 9.21675L0.14775 8.898L0.0915 8.2155C0.0341532 7.47835 0.00363301 6.73937 0 6C0 5.26275 0.039 4.49175 0.0915 3.7845L0.14775 3.102C0.1575 2.9925 0.16725 2.88675 0.17775 2.78325C0.242655 2.11552 0.540913 1.49206 1.02007 1.02251C1.49923 0.552953 2.1286 0.267377 2.7975 0.216L3.41325 0.168L4.08825 0.12225L4.80975 0.0795L5.56275 0.0435001C6.20813 0.0154747 6.85402 0.000971464 7.5 0ZM6 4.18125V7.81875C6 8.16525 6.375 8.38125 6.675 8.20875L9.825 6.39C9.89354 6.35054 9.95048 6.29372 9.99007 6.22525C10.0297 6.15678 10.0505 6.07909 10.0505 6C10.0505 5.92091 10.0297 5.84322 9.99007 5.77475C9.95048 5.70628 9.89354 5.64946 9.825 5.61L6.675 3.792C6.60657 3.75249 6.52894 3.7317 6.44993 3.73171C6.37091 3.73172 6.29329 3.75254 6.22487 3.79207C6.15646 3.8316 6.09966 3.88845 6.06018 3.9569C6.02071 4.02535 5.99995 4.10298 6 4.182V4.18125Z" fill="white"/>
</svg>
